<?xml version="1.0" standalone="no"?>
<!DOCTYPE svg PUBLIC "-//W3C//DTD SVG 20010904//EN"
 "http://www.w3.org/TR/2001/REC-SVG-20010904/DTD/svg10.dtd">
<svg version="1.0" xmlns="http://www.w3.org/2000/svg"
 width="200.000000pt" height="200.000000pt" viewBox="0 0 200.000000 200.000000"
 preserveAspectRatio="xMidYMid meet">

<g transform="translate(0.000000,200.000000) scale(0.100000,-0.100000)"
fill="#000000" stroke="none">
<path d="M1630 1020 c0 -91 3 -110 15 -110 12 0 15 14 15 70 l0 70 40 0 c29 0
40 4 40 15 0 8 -4 16 -10 16 -5 1 -14 3 -20 4 -5 1 -19 3 -30 4 -13 1 -20 8
-20 21 0 11 -7 20 -15 20 -12 0 -15 -19 -15 -110z"/>
<path d="M255 1090 c-31 -12 -59 -71 -51 -104 17 -68 97 -99 147 -56 33 27 9
45 -31 22 -25 -15 -30 -15 -54 1 -19 13 -26 26 -26 50 0 18 5 38 12 45 15 15
70 16 85 1 12 -12 33 -4 33 11 0 13 -54 40 -77 39 -10 0 -27 -4 -38 -9z"/>
<path d="M428 1071 c-93 -83 26 -215 121 -135 43 36 44 93 2 135 -39 38 -80
39 -123 0z m108 -36 c34 -52 -17 -110 -74 -83 -30 15 -42 68 -21 94 20 24 76
18 95 -11z"/>
<path d="M638 1071 c-25 -22 -32 -36 -32 -66 0 -90 135 -130 172 -51 19 40 22
58 11 78 -8 15 -7 24 6 38 19 21 2 39 -20 20 -10 -8 -19 -8 -34 -1 -34 18 -69
12 -103 -18z m106 -27 c34 -33 4 -104 -44 -104 -27 0 -60 35 -60 64 0 33 25
56 60 56 16 0 36 -7 44 -16z"/>
<path d="M874 1090 c-31 -12 -54 -49 -54 -88 0 -72 93 -118 146 -74 53 45 54
103 2 147 -30 26 -57 30 -94 15z m86 -49 c38 -71 -38 -131 -95 -75 -20 20 -19
53 2 76 22 25 79 24 93 -1z"/>
<path d="M1073 1080 c-18 -11 -35 -30 -38 -42 -10 -41 -1 -171 13 -176 8 -2
12 7 12 28 0 30 1 31 35 24 51 -9 83 2 105 39 34 55 20 107 -37 136 -31 16
-53 14 -90 -9z m95 -32 c21 -21 15 -76 -11 -93 -55 -35 -118 27 -82 81 17 27
71 34 93 12z"/>
<path d="M1288 1083 c-55 -34 -60 -100 -12 -148 72 -72 192 25 144 116 -12 22
-61 49 -87 49 -10 0 -30 -8 -45 -17z m98 -48 c22 -34 12 -69 -26 -85 -43 -18
-80 7 -80 53 0 42 15 57 57 57 24 0 37 -7 49 -25z"/>
<path d="M1515 1088 c-43 -25 -55 -49 -55 -115 0 -47 4 -63 14 -63 9 0 15 18
18 59 5 71 19 91 64 91 36 0 54 17 33 31 -19 12 -50 11 -74 -3z"/>
<path d="M610 886 c0 -43 123 -63 160 -26 18 18 27 40 16 40 -2 0 -17 -7 -32
-15 -16 -8 -40 -15 -54 -15 -14 0 -38 7 -54 15 -35 18 -36 18 -36 1z"/>
</g>
</svg>
